<?xml version="1.0" encoding="UTF-8" standalone="no"?>
<!-- Created with Inkscape (http://www.inkscape.org/) -->

<svg
   width="15.296635mm"
   height="15.29664mm"
   viewBox="0 0 15.296635 15.29664"
   version="1.1"
   id="svg2796"
   xmlns="http://www.w3.org/2000/svg"
   xmlns:svg="http://www.w3.org/2000/svg">
  <defs
     id="defs2793" />
  <g
     id="layer1"
     transform="translate(-64.132174,-102.98583)">
    <path
       id="path1419-7"
       style="opacity:0.951667;fill:#ffffff;fill-opacity:1;stroke:none;stroke-width:1.01729;stroke-linecap:round;stroke-linejoin:round;paint-order:stroke fill markers"
       d="m 71.780492,102.98583 a 7.6483236,7.6483236 0 0 0 -7.648318,7.64832 7.6483236,7.6483236 0 0 0 7.648318,7.64832 7.6483236,7.6483236 0 0 0 7.648317,-7.64832 7.6483236,7.6483236 0 0 0 -7.648317,-7.64832 z m 0,2.9694 c 0.206281,0 0.372342,0.16606 0.372342,0.37234 v 8.61314 c 0,0.2063 -0.166061,0.37236 -0.372342,0.37236 -0.206282,0 -0.372343,-0.16606 -0.372343,-0.37236 v -8.61314 c 0,-0.20628 0.166061,-0.37234 0.372343,-0.37234 z m -2.025237,1.34671 c 0.206281,0 0.372357,0.16607 0.372357,0.37234 v 5.91974 c 0,0.20627 -0.166076,0.37233 -0.372357,0.37233 -0.206267,0 -0.372328,-0.16606 -0.372328,-0.37233 v -5.91974 c 0,-0.20627 0.166061,-0.37234 0.372328,-0.37234 z m 4.050474,0 c 0.206281,0 0.372342,0.16607 0.372342,0.37234 v 5.91974 c 0,0.20627 -0.166061,0.37233 -0.372342,0.37233 -0.206282,0 -0.372343,-0.16606 -0.372343,-0.37233 v -5.91974 c 0,-0.20627 0.166061,-0.37234 0.372343,-0.37234 z m -6.075712,1.35286 c 0.206297,0 0.372358,0.16608 0.372358,0.37236 v 3.21398 c 0,0.20628 -0.166061,0.37234 -0.372358,0.37234 -0.206266,0 -0.372327,-0.16606 -0.372327,-0.37234 v -3.21398 c 0,-0.20628 0.166061,-0.37236 0.372327,-0.37236 z m 8.100949,0 c 0.206281,0 0.372342,0.16608 0.372342,0.37236 v 3.21398 c 0,0.20628 -0.166061,0.37234 -0.372342,0.37234 -0.206282,0 -0.372343,-0.16606 -0.372343,-0.37234 v -3.21398 c 0,-0.20628 0.166061,-0.37236 0.372343,-0.37236 z" />
  </g>
</svg>
